<?xml version="1.0" encoding="iso-8859-1" standalone="no"?> 
<?xml-stylesheet href="cat-logic-samples.css" type="text/css"?> 
<svg xmlns="http://www.w3.org/2000/svg" xmlns:xlink="http://www.w3.org/1999/xlink" width="128.43733pt" height="121.32414pt" viewBox="-42.8791 -42.8791 128.43733 121.32414 "> 
<g transform="translate(0, 78.44504 ) scale(1,-1) translate(0,42.8791 )"> 
           <g> 
 <g stroke="rgb(0.0%,0.0%,0.0%)"> 
 <g fill="rgb(0.0%,0.0%,0.0%)"> 
 <g stroke-width="0.4pt"> 
 <g> 
 <g> 
 <path d=" M  -42.67911 -42.67911 M  -42.67911 -42.67911 L  -42.67911 78.24504 L  85.35823 78.24504 L  85.35823 -42.67911 Z M  85.35823 78.24504  " style="fill:none"/> 
 <path d=" M  0.0 0.0 M  28.45274 0.0 C  28.45274 15.71422 15.71422 28.45274 0.0 28.45274 C  -15.71422 28.45274 -28.45274 15.71422 -28.45274 0.0 C  -28.45274 -15.71422 -15.71422 -28.45274 0.0 -28.45274 C  15.71422 -28.45274 28.45274 -15.71422 28.45274 0.0 Z M  0.0 0.0  " style="fill:none"/> 
 <g> 
 <g> 
 <g transform="matrix(1.0,0.0,0.0,1.0,-25.35052,-24.99927)"> 
 <g fill="rgb(0.0%,0.0%,0.0%)"> 
 <text style="stroke:none" transform="scale(1,-1) translate(1.87503,0)" text-anchor="middle"  font-size="10"> 
<tspan font-family="cmr" font-size="5">S</tspan></text> 
</g> 
 </g> 
 </g> 
 </g> 
 <path d=" M  42.67912 0.0 M  71.13187 0.0 C  71.13187 15.71422 58.39334 28.45274 42.67912 28.45274 C  26.9649 28.45274 14.22638 15.71422 14.22638 0.0 C  14.22638 -15.71422 26.9649 -28.45274 42.67912 -28.45274 C  58.39334 -28.45274 71.13187 -15.71422 71.13187 0.0 Z M  42.67912 0.0  " style="fill:none"/> 
 <g> 
 <g> 
 <g transform="matrix(1.0,0.0,0.0,1.0,64.27959,-24.99927)"> 
 <g fill="rgb(0.0%,0.0%,0.0%)"> 
 <text style="stroke:none" transform="scale(1,-1) translate(2.25003,0)" text-anchor="middle"  font-size="10"> 
<tspan font-family="cmr" font-size="5">P</tspan></text> 
</g> 
 </g> 
 </g> 
 </g> 
 <path d=" M  21.33955 36.9613 M  49.7923 36.9613 C  49.7923 52.67552 37.05377 65.41405 21.33955 65.41405 C  5.62534 65.41405 -7.11319 52.67552 -7.11319 36.9613 C  -7.11319 21.24709 5.62534 8.50856 21.33955 8.50856 C  37.05377 8.50856 49.7923 21.24709 49.7923 36.9613 Z M  21.33955 36.9613  " style="fill:none"/> 
 <g> 
 <g> 
 <g transform="matrix(1.0,0.0,0.0,1.0,42.94002,58.56177)"> 
 <g fill="rgb(0.0%,0.0%,0.0%)"> 
 <text style="stroke:none" transform="scale(1,-1) translate(2.97226,0)" text-anchor="middle"  font-size="10"> 
<tspan font-family="cmr" font-size="5">M</tspan></text> 
</g> 
 </g> 
 </g> 
 </g> 
 </g> 
 <g> 
 <g fill-opacity="0.5"> 
 <g stroke="rgb(0.0%,0.0%,100.0%)"> 
 <g fill="rgb(0.0%,0.0%,100.0%)"> 
 <clipPath id="pgfcp2"> <path d=" M  21.33955 36.9613 M  49.7923 36.9613 C  49.7923 52.67552 37.05377 65.41405 21.33955 65.41405 C  5.62534 65.41405 -7.11319 52.67552 -7.11319 36.9613 C  -7.11319 21.24709 5.62534 8.50856 21.33955 8.50856 C  37.05377 8.50856 49.7923 21.24709 49.7923 36.9613 Z M  21.33955 36.9613  "/> 
</clipPath> 
 <g clip-path="url(#pgfcp2)"> 
 <path d=" M  42.67912 0.0 M  71.13187 0.0 C  71.13187 15.71422 58.39334 28.45274 42.67912 28.45274 C  26.9649 28.45274 14.22638 15.71422 14.22638 0.0 C  14.22638 -15.71422 26.9649 -28.45274 42.67912 -28.45274 C  58.39334 -28.45274 71.13187 -15.71422 71.13187 0.0 Z M  42.67912 0.0  " style="stroke:none"/> 
 </g> 
 </g> 
 </g> 
 </g> 
 </g> 
 <g> 
 <g fill-opacity="0.5"> 
 <g stroke="rgb(0.0%,100.0%,0.0%)"> 
 <g fill="rgb(0.0%,100.0%,0.0%)"> 
 <clipPath id="pgfcp3"> <path d=" M  21.33955 36.9613 M  49.7923 36.9613 C  49.7923 52.67552 37.05377 65.41405 21.33955 65.41405 C  5.62534 65.41405 -7.11319 52.67552 -7.11319 36.9613 C  -7.11319 21.24709 5.62534 8.50856 21.33955 8.50856 C  37.05377 8.50856 49.7923 21.24709 49.7923 36.9613 Z M  21.33955 36.9613 M  -42.67911 -42.67911 M  -42.67911 -42.67911 L  -42.67911 78.24504 L  85.35823 78.24504 L  85.35823 -42.67911 Z M  85.35823 78.24504  "/> 
</clipPath> 
 <g clip-path="url(#pgfcp3)"> 
 <g> 
 <g fill-rule="evenodd"> 
 <path d=" M  0.0 0.0 M  28.45274 0.0 C  28.45274 15.71422 15.71422 28.45274 0.0 28.45274 C  -15.71422 28.45274 -28.45274 15.71422 -28.45274 0.0 C  -28.45274 -15.71422 -15.71422 -28.45274 0.0 -28.45274 C  15.71422 -28.45274 28.45274 -15.71422 28.45274 0.0 Z M  0.0 0.0  " style="stroke:none"/> 
 </g> 
 </g> 
 </g> 
 </g> 
 </g> 
 </g> 
 </g> 
 </g> 
 </g> 
 </g> 
 </g> 
 </g> 
 
                                                      </g> 
</svg> 
